HIERARCHY
ROOT Hips
{
    OFFSET   0.000000   0.000000   0.000000
    CHANNELS 6 Xposition Yposition Zposition Zrotation Xrotation Yrotation
    JOINT Chest
    {
        OFFSET   0.000000   8.007240   0.000000
        CHANNELS 3 Zrotation Xrotation Yrotation
        JOINT Chest2
        {
            OFFSET   0.000000  22.077100   0.000000
            CHANNELS 3 Zrotation Xrotation Yrotation
            JOINT Neck
            {
                OFFSET   0.000000  23.254800   0.000000
                CHANNELS 3 Zrotation Xrotation Yrotation
                JOINT Head
                {
                    OFFSET   0.000000  14.370000   1.956600
                    CHANNELS 3 Zrotation Xrotation Yrotation
                    End Site
                    {
                        OFFSET   0.000000  19.566000   0.000000
                    }
                }
            }
            JOINT LeftCollar
            {
                OFFSET   3.911900  19.017000  -0.467064
                CHANNELS 3 Zrotation Xrotation Yrotation
                JOINT LeftShoulder
                {
                    OFFSET  10.383700   0.000000   0.000000
                    CHANNELS 3 Zrotation Xrotation Yrotation
                    JOINT LeftElbow
                    {
                        OFFSET  26.662100   0.001476   0.000517
                        CHANNELS 3 Zrotation Xrotation Yrotation
                        JOINT LeftWrist
                        {
                            OFFSET  28.869000  -0.000025  -0.000106
                            CHANNELS 3 Zrotation Xrotation Yrotation
                            JOINT LeftFinger0
                            {
                                OFFSET   2.044660  -2.323460   3.252850
                                CHANNELS 3 Zrotation Xrotation Yrotation
                                JOINT LeftFinger01
                                {
                                    OFFSET   3.088130   0.000000   0.000000
                                    CHANNELS 3 Zrotation Xrotation Yrotation
                                    JOINT LeftFinger02
                                    {
                                        OFFSET   2.639460   0.000000   0.000000
                                        CHANNELS 3 Zrotation Xrotation Yrotation
                                        End Site
                                        {
                                            OFFSET   2.582190   0.000000   0.000000
                                        }
                                    }
                                }
                            }
                            JOINT LeftFinger1
                            {
                                OFFSET   8.364480   0.000000   3.252850
                                CHANNELS 3 Zrotation Xrotation Yrotation
                                JOINT LeftFinger11
                                {
                                    OFFSET   4.646930   0.000000   0.000000
                                    CHANNELS 3 Zrotation Xrotation Yrotation
                                    JOINT LeftFinger12
                                    {
                                        OFFSET   2.323460   0.000000   0.000000
                                        CHANNELS 3 Zrotation Xrotation Yrotation
                                        End Site
                                        {
                                            OFFSET   2.273050   0.000000   0.000000
                                        }
                                    }
                                }
                            }
                            JOINT LeftFinger2
                            {
                                OFFSET   8.364490   0.000015   1.078090
                                CHANNELS 3 Zrotation Xrotation Yrotation
                                JOINT LeftFinger21
                                {
                                    OFFSET   5.111620   0.000000   0.000000
                                    CHANNELS 3 Zrotation Xrotation Yrotation
                                    JOINT LeftFinger22
                                    {
                                        OFFSET   2.788160   0.000016   0.000000
                                        CHANNELS 3 Zrotation Xrotation Yrotation
                                        End Site
                                        {
                                            OFFSET   2.727660   0.000000   0.000000
                                        }
                                    }
                                }
                            }
                            JOINT LeftFinger3
                            {
                                OFFSET   7.899780   0.000017  -1.078090
                                CHANNELS 3 Zrotation Xrotation Yrotation
                                JOINT LeftFinger31
                                {
                                    OFFSET   4.646930   0.000000   0.000000
                                    CHANNELS 3 Zrotation Xrotation Yrotation
                                    JOINT LeftFinger32
                                    {
                                        OFFSET   2.323470   0.000000   0.000000
                                        CHANNELS 3 Zrotation Xrotation Yrotation
                                        End Site
                                        {
                                            OFFSET   2.273050   0.000000   0.000000
                                        }
                                    }
                                }
                            }
                            JOINT LeftFinger4
                            {
                                OFFSET   7.435090   0.000000  -3.252850
                                CHANNELS 3 Zrotation Xrotation Yrotation
                                JOINT LeftFinger41
                                {
                                    OFFSET   3.717550   0.000000   0.000000
                                    CHANNELS 3 Zrotation Xrotation Yrotation
                                    JOINT LeftFinger42
                                    {
                                        OFFSET   1.858770   0.000000   0.000000
                                        CHANNELS 3 Zrotation Xrotation Yrotation
                                        End Site
                                        {
                                            OFFSET   1.818440   0.000000   0.000000
                                        }
                                    }
                                }
                            }
                        }
                    }
                }
            }
            JOINT RightCollar
            {
                OFFSET  -3.911900  19.017000  -0.467063
                CHANNELS 3 Zrotation Xrotation Yrotation
                JOINT RightShoulder
                {
                    OFFSET -10.383700   0.000019   0.000000
                    CHANNELS 3 Zrotation Xrotation Yrotation
                    JOINT RightElbow
                    {
                        OFFSET -26.662100   0.001175   0.000102
                        CHANNELS 3 Zrotation Xrotation Yrotation
                        JOINT RightWrist
                        {
                            OFFSET -28.869000   0.000016  -0.000079
                            CHANNELS 3 Zrotation Xrotation Yrotation
                            JOINT RightFinger0
                            {
                                OFFSET  -2.044660  -2.323490   3.252850
                                CHANNELS 3 Zrotation Xrotation Yrotation
                                JOINT RightFinger01
                                {
                                    OFFSET  -3.088140   0.000000   0.000000
                                    CHANNELS 3 Zrotation Xrotation Yrotation
                                    JOINT RightFinger02
                                    {
                                        OFFSET  -2.639460   0.000000   0.000000
                                        CHANNELS 3 Zrotation Xrotation Yrotation
                                        End Site
                                        {
                                            OFFSET  -2.582190   0.000000   0.000000
                                        }
                                    }
                                }
                            }
                            JOINT RightFinger1
                            {
                                OFFSET  -8.364480   0.000000   3.252850
                                CHANNELS 3 Zrotation Xrotation Yrotation
                                JOINT RightFinger11
                                {
                                    OFFSET  -4.646930   0.000000   0.000000
                                    CHANNELS 3 Zrotation Xrotation Yrotation
                                    JOINT RightFinger12
                                    {
                                        OFFSET  -2.323470   0.000000   0.000000
                                        CHANNELS 3 Zrotation Xrotation Yrotation
                                        End Site
                                        {
                                            OFFSET  -2.273050   0.000000   0.000000
                                        }
                                    }
                                }
                            }
                            JOINT RightFinger2
                            {
                                OFFSET  -8.364480   0.000000   1.078090
                                CHANNELS 3 Zrotation Xrotation Yrotation
                                JOINT RightFinger21
                                {
                                    OFFSET  -5.111620   0.000000   0.000000
                                    CHANNELS 3 Zrotation Xrotation Yrotation
                                    JOINT RightFinger22
                                    {
                                        OFFSET  -2.788160   0.000000   0.000000
                                        CHANNELS 3 Zrotation Xrotation Yrotation
                                        End Site
                                        {
                                            OFFSET  -2.727660   0.000000   0.000000
                                        }
                                    }
                                }
                            }
                            JOINT RightFinger3
                            {
                                OFFSET  -7.899780   0.000000  -1.078090
                                CHANNELS 3 Zrotation Xrotation Yrotation
                                JOINT RightFinger31
                                {
                                    OFFSET  -4.646930   0.000000   0.000000
                                    CHANNELS 3 Zrotation Xrotation Yrotation
                                    JOINT RightFinger32
                                    {
                                        OFFSET  -2.323470   0.000000   0.000000
                                        CHANNELS 3 Zrotation Xrotation Yrotation
                                        End Site
                                        {
                                            OFFSET  -2.273050   0.000000   0.000000
                                        }
                                    }
                                }
                            }
                            JOINT RightFinger4
                            {
                                OFFSET  -7.435090   0.000000  -3.252850
                                CHANNELS 3 Zrotation Xrotation Yrotation
                                JOINT RightFinger41
                                {
                                    OFFSET  -3.717550   0.000000   0.000000
                                    CHANNELS 3 Zrotation Xrotation Yrotation
                                    JOINT RightFinger42
                                    {
                                        OFFSET  -1.858770   0.000000   0.000000
                                        CHANNELS 3 Zrotation Xrotation Yrotation
                                        End Site
                                        {
                                            OFFSET  -1.818440   0.000000   0.000000
                                        }
                                    }
                                }
                            }
                        }
                    }
                }
            }
        }
    }
    JOINT LeftHip
    {
        OFFSET   9.783040   0.000000   0.000000
        CHANNELS 3 Zrotation Xrotation Yrotation
        JOINT LeftKnee
        {
            OFFSET   0.000032 -41.789100  -0.002222
            CHANNELS 3 Zrotation Xrotation Yrotation
            JOINT LeftAnkle
            {
                OFFSET   0.000087 -41.133200  -0.000135
                CHANNELS 3 Zrotation Xrotation Yrotation
                JOINT LeftToe
                {
                    OFFSET   0.000000  -6.358960  14.674500
                    CHANNELS 3 Zrotation Xrotation Yrotation
                    End Site
                    {
                        OFFSET   0.000000   0.000000   3.913200
                    }
                }
            }
        }
    }
    JOINT RightHip
    {
        OFFSET  -9.783040   0.000000   0.000000
        CHANNELS 3 Zrotation Xrotation Yrotation
        JOINT RightKnee
        {
            OFFSET   0.000047 -41.789100  -0.000896
            CHANNELS 3 Zrotation Xrotation Yrotation
            JOINT RightAnkle
            {
                OFFSET  -0.000117 -41.133300  -0.000248
                CHANNELS 3 Zrotation Xrotation Yrotation
                JOINT RightToe
                {
                    OFFSET   0.000000  -6.358970  14.674500
                    CHANNELS 3 Zrotation Xrotation Yrotation
                    End Site
                    {
                        OFFSET   0.000000   0.000000   3.913200
                    }
                }
            }
        }
    }
}
MOTION
Frames: 4
Frame Time:   0.016667
  0.780041  89.337700   3.068680  -1.774720  -5.522640  -1.048040   5.037370   2.780850  -2.563680  10.210700   5.323250  -5.371020   5.952070  -2.698730   0.280024   9.844130  -5.296880  12.095600  -8.190450   1.793590   0.588659 -76.766300  32.681700 -11.702100  -3.285260  -8.959970  -7.713380   6.129310  -5.188280  11.579200  43.644000  32.848900 -66.557500 -23.451400  -0.006610   0.003196  -6.725680  -0.006323  -0.005829 -32.548000   6.362060  -9.848700 -27.081900   0.001177  -0.003268 -18.957300   0.002095  -0.000663 -28.248700   2.564030  -4.759750 -34.699300   0.001549  -0.001202 -23.109700   0.000744  -0.000957 -28.458300   0.428871  -0.791425 -35.721200   0.001525  -0.001827 -23.790400   0.002075   0.001139 -35.353900   0.155721  -0.219434 -53.031300  -0.005378   0.002383 -35.318800  -0.001770  -0.001263  13.494800  -3.713750  16.613600  60.670200  19.764800 -18.441500 -16.436900  -7.387310  94.691000  38.924800  -2.467710  28.438300 -46.171400  36.380800  64.972900  25.069800   0.003934  -0.001794   7.534880   0.003138  -0.001123  24.531100   6.807090  14.573100  20.784500  -0.001087   0.000513  14.549100  -0.000348   0.000179  14.468600   0.175955   0.655354  14.469300  -0.002170  -0.002084   9.636580  -0.000243  -0.001335   6.255090  -0.905941  -8.088940   6.318670  -0.001555  -0.001786   4.208230  -0.000166   0.000338  18.787900  -3.740710 -10.831100  28.706800  -0.006965  -0.002776  19.118700  -0.003613  -0.001533   2.074280  10.666500   4.099980   0.548293   0.555507  12.777700  -2.695530  -4.589100   4.021510   0.000000   0.000000  -0.000000   2.147530   4.974430   2.168480   0.489715   7.149700 -15.089300  -2.159130  -6.411210  -2.968110   0.000000   0.000000   0.000000
  0.781664  89.333500   3.050880  -1.790060  -5.464450  -1.074940   5.050340   2.771320  -2.583130  10.237200   5.301240  -5.409460   5.946720  -2.658100   0.276786   9.825980  -5.216440  12.099400  -8.195390   1.787620   0.601457 -76.646300  32.814700 -11.730600  -3.268050  -9.121290  -7.688650   6.138960  -5.305150  11.587600  43.613600  32.757000 -66.536500 -23.382100  -0.013353   0.003179  -6.691070  -0.013303  -0.009016 -32.549800   6.419420  -9.935560 -27.088500   0.001150  -0.003217 -18.962000   0.002059  -0.000642 -28.246700   2.616420  -4.856950 -34.718300   0.001441  -0.001159 -23.122400   0.000696  -0.000950 -28.459900   0.487019  -0.898645 -35.753800   0.001395  -0.001828 -23.812100   0.002065   0.001168 -35.378900   0.149715  -0.210825 -53.068800  -0.005452   0.002367 -35.343900  -0.001767  -0.001247  13.495800  -3.686260  16.557300  60.724600  19.677400 -18.228700 -16.527200  -7.677810  94.223800  38.879600  -2.750310  28.483000 -46.548500  36.796500  64.615500  25.043300   0.004606  -0.002097   7.521630   0.003521  -0.001376  23.873100   6.661120  14.688700  20.235900  -0.001070   0.000625  14.165100  -0.000236   0.000353  14.240300   0.037129   0.134525  14.239700  -0.002155  -0.002231   9.483630  -0.000285  -0.001491   6.358740  -0.957579  -8.545880   6.430820  -0.001653  -0.001623   4.282920  -0.000074   0.000548  18.881500  -3.904770 -11.270300  28.901100  -0.007171  -0.002803  19.248100  -0.003457  -0.001578   2.084840  10.635700   4.109440   0.553180   0.504422  12.795800  -2.696190  -4.569000   4.024520  -0.000000   0.000000   0.000000   2.140080   4.925950   2.176550   0.501734   7.103910 -15.084700  -2.150370  -6.370840  -2.941460   0.000000   0.000000  -0.000000
  0.780491  89.329700   3.039510  -1.792540  -5.408590  -1.069050   5.053170   2.752040  -2.602900  10.243000   5.260780  -5.447340   5.951050  -2.608040   0.271974   9.827230  -5.117930  12.092300  -8.187880   1.796990   0.634616 -76.544300  32.874300 -11.753500  -3.255990  -9.259230  -7.728160   6.162350  -5.395430  11.589900  43.607900  32.694300 -66.521500 -23.313200  -0.025126   0.003161  -6.656630  -0.023551  -0.015799 -32.537800   6.466940 -10.011900 -27.086200   0.001125  -0.003163 -18.960400   0.002025  -0.000611 -28.244400   2.665070  -4.947300 -34.734400   0.001335  -0.001118 -23.133200   0.000648  -0.000942 -28.463100   0.541146  -0.998406 -35.796400   0.001270  -0.001826 -23.840500   0.002056   0.001206 -35.406300   0.143153  -0.201403 -53.109900  -0.005522   0.002360 -35.371200  -0.001756  -0.001241  13.469200  -3.640330  16.486100  60.806800  19.299800 -18.026700 -16.548500  -7.778990  93.833400  38.618300  -2.679390  28.188100 -46.717200  37.121500  64.700700  25.180700   0.005276  -0.002419   7.590330   0.003860  -0.001643  23.537600   6.544900  14.684700  19.948300  -0.001062   0.000724  13.963800  -0.000119   0.000492  13.993500  -0.072058  -0.301573  13.993000  -0.002112  -0.002376   9.319370  -0.000326  -0.001645   6.071930  -0.945313  -8.868710   6.146230  -0.001768  -0.001454   4.093390   0.000015   0.000812  18.602300  -3.945510 -11.623600  28.514700  -0.007351  -0.002804  18.990800  -0.003285  -0.001627   2.103380  10.556100   4.113800   0.541508   0.551227  12.790700  -2.705580  -4.588090   4.018350  -0.000000   0.000000  -0.000000   2.130580   4.888920   2.164170   0.505824   7.053080 -15.078000  -2.145100  -6.332900  -2.935690  -0.000000   0.000000  -0.000000
  0.776849  89.326300   3.035350  -1.790120  -5.359590  -1.046640   5.053470   2.729170  -2.622770  10.242800   5.213430  -5.484820   5.960000  -2.554230   0.266606   9.843830  -5.011720  12.078900  -8.173370   1.819690   0.681969 -76.457800  32.887800 -11.776500  -3.238910  -9.371110  -7.821660   6.211290  -5.488870  11.592300  43.614100  32.654000 -66.513500 -23.253900  -0.033169   0.003143  -6.626960  -0.030352  -0.020555 -32.528300   6.507250 -10.076400 -27.083800   0.001099  -0.003109 -18.958700   0.001994  -0.000579 -28.243500   2.709290  -5.029130 -34.760800   0.001231  -0.001077 -23.150700   0.000599  -0.000933 -28.468400   0.590975  -1.090090 -35.860800   0.001147  -0.001824 -23.883300   0.002046   0.001243 -35.444400   0.134024  -0.188329 -53.167100  -0.005591   0.002351 -35.409300  -0.001746  -0.001234  13.428500  -3.579100  16.422500  60.910200  18.725700 -17.846500 -16.504300  -7.737270  93.471800  38.039700  -2.580160  27.542500 -46.856600  37.361200  64.808000  25.328400   0.005946  -0.002749   7.664190   0.004146  -0.001922  23.315900   6.480400  14.682200  19.760900  -0.001047   0.000806  13.832700   0.000000   0.000618  13.756600  -0.154725  -0.640565  13.757000  -0.002067  -0.002516   9.162180  -0.000370  -0.001798   5.681730  -0.915756  -9.035560   5.754230  -0.001882  -0.001279   3.832320   0.000101   0.001111  18.229700  -3.949470 -11.802600  27.957200  -0.007441  -0.002805  18.619500  -0.003102  -0.001673   2.123580  10.474500   4.117380   0.526312   0.613961  12.778400  -2.719510  -4.614600   3.999490  -0.000000   0.000000   0.000000   2.124080   4.862610   2.146660   0.505740   7.003260 -15.073600  -2.142320  -6.300030  -2.934710  -0.000000   0.000000   0.000000
